<svg height='300px' width='300px'  fill="#6b4235" xmlns="http://www.w3.org/2000/svg" viewBox="0 0 512 512" x="0px" y="0px"><path d="M292.7998,117.6001l-8.61547-6.46155A31.79794,31.79794,0,0,0,288,96V64a7.99943,7.99943,0,0,0-3.5625-6.65625L265.0791,44.43848A26.42157,26.42157,0,0,0,224,66.42236V96a31.79794,31.79794,0,0,0,3.81567,15.13855l-8.61547,6.46155A48.22938,48.22938,0,0,0,200,156v12a8.00008,8.00008,0,0,0,8,8h96a8.00008,8.00008,0,0,0,8-8V156A48.22938,48.22938,0,0,0,292.7998,117.6001ZM256,112a16.01833,16.01833,0,0,1-16-16V88h32v8A16.01833,16.01833,0,0,1,256,112ZM240,66.42236a10.42189,10.42189,0,0,1,16.20312-8.67187L272,68.28174V72H240ZM216,156a32.15413,32.15413,0,0,1,12.7998-25.6001l9.95459-7.466A31.82965,31.82965,0,0,0,248,126.98737V160H216Zm80,4H264V126.98737a31.82965,31.82965,0,0,0,9.24561-4.05347l9.95459,7.466A32.15413,32.15413,0,0,1,296,156Z"></path><path d="M64,464h96a8.00008,8.00008,0,0,0,8-8V384a56,56,0,0,0-112,0v72A8.00008,8.00008,0,0,0,64,464Zm64-72a16,16,0,0,1-32,0,24.04166,24.04166,0,0,0,22.62891-16H120a8.00917,8.00917,0,0,1,8,8ZM94.75439,418.93384A31.82615,31.82615,0,0,0,104,422.9873V448H72.25488A32.17956,32.17956,0,0,1,84.7998,426.3999ZM120,448V422.9873a31.82615,31.82615,0,0,0,9.24561-4.05346l9.95459,7.46606A32.17956,32.17956,0,0,1,151.74512,448Zm-8-104a40.04552,40.04552,0,0,1,40,40v32.25439c-1.02881-.92334-2.08643-1.81884-3.2002-2.65429l-8.61547-6.46155A31.79794,31.79794,0,0,0,144,392v-8a24.02718,24.02718,0,0,0-24-24h-8a8.00008,8.00008,0,0,0-8,8,8.00917,8.00917,0,0,1-8,8H88a8.00008,8.00008,0,0,0-8,8v8a31.79794,31.79794,0,0,0,3.81567,15.13855L75.2002,413.6001c-1.11377.83545-2.17139,1.731-3.2002,2.65429V384A40.04552,40.04552,0,0,1,112,344Z"></path><path d="M352,464h96a8.00008,8.00008,0,0,0,8-8V444a48.22938,48.22938,0,0,0-19.2002-38.3999l-8.61547-6.46155A31.79794,31.79794,0,0,0,432,384V344a16.01833,16.01833,0,0,0-16-16H400a32.03635,32.03635,0,0,0-32,32v24a31.79794,31.79794,0,0,0,3.81567,15.13855l-8.61547,6.46155A48.22938,48.22938,0,0,0,344,444v12A8.00008,8.00008,0,0,0,352,464Zm32-80v-8h32v8a16,16,0,0,1-32,0Zm56,60v4H408V414.9873a31.82615,31.82615,0,0,0,9.24561-4.05346l9.95459,7.46606A32.15413,32.15413,0,0,1,440,444ZM400,344h16v16H384A16.01833,16.01833,0,0,1,400,344ZM360,444a32.15413,32.15413,0,0,1,12.7998-25.6001l9.95459-7.46606A31.82615,31.82615,0,0,0,392,414.9873V448H360Z"></path><path d="M488,304H408V256a8.00008,8.00008,0,0,0-8-8H264V208h80a8.00008,8.00008,0,0,0,8-8V24a8.00008,8.00008,0,0,0-8-8H168a8.00008,8.00008,0,0,0-8,8V200a8.00008,8.00008,0,0,0,8,8h80v40H112a8.00008,8.00008,0,0,0-8,8v48H24a8.00008,8.00008,0,0,0-8,8V488a8.00008,8.00008,0,0,0,8,8H200a8.00008,8.00008,0,0,0,8-8V312a8.00008,8.00008,0,0,0-8-8H120V264H392v40H312a8.00008,8.00008,0,0,0-8,8V488a8.00008,8.00008,0,0,0,8,8H488a8.00008,8.00008,0,0,0,8-8V312A8.00008,8.00008,0,0,0,488,304ZM176,32H336V192H176Zm16,448H32V320H192Zm288,0H320V320H480Z"></path></svg>