<svg height='300px' width='300px'  fill="#6b4235" xmlns="http://www.w3.org/2000/svg" viewBox="0 0 512 512" x="0px" y="0px"><circle cx="232" cy="136" r="8"></circle><rect x="216" y="104" width="24" height="16"></rect><circle cx="280" cy="136" r="8"></circle><rect x="272" y="104" width="24" height="16"></rect><path d="M240,184h8a24.0275,24.0275,0,0,0,24-24v-8H256v8a8.00917,8.00917,0,0,1-8,8h-8Z"></path><circle cx="104" cy="296" r="8"></circle><rect x="88" y="264" width="24" height="16"></rect><circle cx="152" cy="296" r="8"></circle><rect x="144" y="264" width="24" height="16"></rect><path d="M128,320a8.00917,8.00917,0,0,1-8,8h-8v16h8a24.0275,24.0275,0,0,0,24-24v-8H128Z"></path><path d="M476.7998,381.59961l-38.03-28.52246A63.61185,63.61185,0,0,0,448,320V240h-.00012L448,239.99805a63.98729,63.98729,0,0,0-118.76959-33.07544l-18.46057-13.84546A63.61185,63.61185,0,0,0,320,160V72a56.06322,56.06322,0,0,0-56-56H248a32.01745,32.01745,0,0,0-27.70557,16H216a24.0275,24.0275,0,0,0-24,24V160a63.61185,63.61185,0,0,0,9.23016,33.07715l-12.3125,9.23437A32.038,32.038,0,0,0,160,184H120a23.9434,23.9434,0,0,0-17.86926,8H88a24.02718,24.02718,0,0,0-24,24V320a63.61185,63.61185,0,0,0,9.23016,33.07715l-38.03,28.52246A48.22961,48.22961,0,0,0,16,420v68a8.00008,8.00008,0,0,0,8,8H488a8.00008,8.00008,0,0,0,8-8V420A48.22961,48.22961,0,0,0,476.7998,381.59961ZM368,194.74219A48.01258,48.01258,0,0,1,431.333,232H392a24.0275,24.0275,0,0,1-24-24Zm-2.50342,43.19336A39.83643,39.83643,0,0,0,392.00049,248L432,247.99829V320a48,48,0,0,1-96,0V263.19336A40.15112,40.15112,0,0,0,365.49658,237.93555ZM375.24005,416H392.76l6.4,64H368.84Zm18.16223-16H374.55859l-3.46148-17.30737a64.26189,64.26189,0,0,0,25.65515.02807ZM352,204.252V224a24.04167,24.04167,0,0,1-16,22.62891V240A47.89291,47.89291,0,0,1,352,204.252ZM128,368a48.054,48.054,0,0,1-48-48V247.2207a41.23844,41.23844,0,0,0,24.33691-14.82031A39.94716,39.94716,0,0,0,136,248h40v72A48.054,48.054,0,0,1,128,368Zm-8.76,48H136.76l6.4,64H112.84Zm18.16223-16H118.55859l-3.46148-17.30737a64.26189,64.26189,0,0,0,25.65515.02807Zm88.08881-183.75171L231.8418,248l-3.11365,15.56763-25.85944-51.719,8.30371-6.22778A64.35525,64.35525,0,0,0,225.49109,216.24829ZM265.4024,240H246.55859l-3.46148-17.30737a64.26338,64.26338,0,0,0,25.65545.02807Zm-18.84381,16h18.88282l6.17547,30.87744L256,318.11133l-15.61688-31.23389Zm36.7135,7.56714-3.11828-15.59155,6.12823-31.60938a64.33667,64.33667,0,0,0,14.54554-10.74536l8.30371,6.22778ZM232,48a16.01833,16.01833,0,0,1,16-16h16a40.07378,40.07378,0,0,1,38.14014,27.93262A27.343,27.343,0,0,0,268.68652,64L263.832,68.85449A10.66688,10.66688,0,0,1,256.24023,72h-.20117a11.28372,11.28372,0,0,1-8.03857-3.31348l-4.688-4.6875A27.17043,27.17043,0,0,0,232,57.18359Zm-8,24a11.23306,11.23306,0,0,1,7.99854,3.3125L236.686,80a27.17689,27.17689,0,0,0,19.353,8h.20117A26.56188,26.56188,0,0,0,275.14551,80.169L280,75.31445a11.31192,11.31192,0,0,1,16,0l8,7.99951V160a48,48,0,0,1-96,0V83.314l8-7.99951A11.23845,11.23845,0,0,1,224,72ZM208,56a8.00917,8.00917,0,0,1,8-8v9.18457a26.98519,26.98519,0,0,0-8,3.98535ZM120,200h40a16.01833,16.01833,0,0,1,16,16v16H136a24.02718,24.02718,0,0,1-24-24A8.00917,8.00917,0,0,1,120,200ZM80,216a8.00917,8.00917,0,0,1,8-8h8v6.70215A25.26244,25.26244,0,0,1,80,230.708ZM32,420a32.15109,32.15109,0,0,1,12.7998-25.59961l38.37262-28.77954A64.34647,64.34647,0,0,0,97.491,376.24805l6.42938,32.14746L96.76,480H32Zm192,60H159.24005l-2.4-24H208V440H155.24005l-3.1629-31.62891,6.20489-32.00488a64.34419,64.34419,0,0,0,14.54554-10.74536l38.37262,28.77954A32.15109,32.15109,0,0,1,224,420Zm48-60v60H240V420a48.22961,48.22961,0,0,0-19.2002-38.40039l-38.03-28.52246A63.61185,63.61185,0,0,0,192,320V225.88867l56.84473,113.68945a8.00009,8.00009,0,0,0,14.31054,0l58.986-117.97192.46588.34937A63.77865,63.77865,0,0,0,320,240v80a63.61185,63.61185,0,0,0,9.23016,33.07715l-38.03,28.52246A48.22961,48.22961,0,0,0,272,420Zm16,0a32.15109,32.15109,0,0,1,12.7998-25.59961l38.37262-28.77954a64.34647,64.34647,0,0,0,14.31861,10.6272l6.42938,32.14746L352.76,480H288Zm192,60H415.24005l-3.2-32H464V432H410.44006l-2.36291-23.62891,6.20489-32.00488a64.34419,64.34419,0,0,0,14.54554-10.74536l38.37262,28.77954A32.15109,32.15109,0,0,1,480,420Z"></path><circle cx="360" cy="296" r="8"></circle><rect x="344" y="264" width="24" height="16"></rect><circle cx="408" cy="296" r="8"></circle><rect x="400" y="264" width="24" height="16"></rect><path d="M368,344h8a24.0275,24.0275,0,0,0,24-24v-8H384v8a8.00917,8.00917,0,0,1-8,8h-8Z"></path></svg>